<svg width="166" height="28" viewBox="0 0 166 28" fill="none" xmlns="http://www.w3.org/2000/svg">
<path d="M41.6992 19.6328H49.4453V22H38.7344V4.9375H41.6992V19.6328ZM59.0195 22C58.8945 21.7578 58.7852 21.3633 58.6914 20.8164C57.7852 21.7617 56.6758 22.2344 55.3633 22.2344C54.0898 22.2344 53.0508 21.8711 52.2461 21.1445C51.4414 20.418 51.0391 19.5195 51.0391 18.4492C51.0391 17.0977 51.5391 16.0625 52.5391 15.3438C53.5469 14.6172 54.9844 14.2539 56.8516 14.2539H58.5977V13.4219C58.5977 12.7656 58.4141 12.2422 58.0469 11.8516C57.6797 11.4531 57.1211 11.2539 56.3711 11.2539C55.7227 11.2539 55.1914 11.418 54.7773 11.7461C54.3633 12.0664 54.1562 12.4766 54.1562 12.9766H51.3086C51.3086 12.2812 51.5391 11.6328 52 11.0312C52.4609 10.4219 53.0859 9.94531 53.875 9.60156C54.6719 9.25781 55.5586 9.08594 56.5352 9.08594C58.0195 9.08594 59.2031 9.46094 60.0859 10.2109C60.9688 10.9531 61.4219 12 61.4453 13.3516V19.0703C61.4453 20.2109 61.6055 21.1211 61.9258 21.8008V22H59.0195ZM55.8906 19.9492C56.4531 19.9492 56.9805 19.8125 57.4727 19.5391C57.9727 19.2656 58.3477 18.8984 58.5977 18.4375V16.0469H57.0625C56.0078 16.0469 55.2148 16.2305 54.6836 16.5977C54.1523 16.9648 53.8867 17.4844 53.8867 18.1562C53.8867 18.7031 54.0664 19.1406 54.4258 19.4688C54.793 19.7891 55.2812 19.9492 55.8906 19.9492ZM71.0664 11.9219C70.6914 11.8594 70.3047 11.8281 69.9062 11.8281C68.6016 11.8281 67.7227 12.3281 67.2695 13.3281V22H64.4219V9.32031H67.1406L67.2109 10.7383C67.8984 9.63672 68.8516 9.08594 70.0703 9.08594C70.4766 9.08594 70.8125 9.14062 71.0781 9.25L71.0664 11.9219ZM80.0898 22C79.9648 21.7578 79.8555 21.3633 79.7617 20.8164C78.8555 21.7617 77.7461 22.2344 76.4336 22.2344C75.1602 22.2344 74.1211 21.8711 73.3164 21.1445C72.5117 20.418 72.1094 19.5195 72.1094 18.4492C72.1094 17.0977 72.6094 16.0625 73.6094 15.3438C74.6172 14.6172 76.0547 14.2539 77.9219 14.2539H79.668V13.4219C79.668 12.7656 79.4844 12.2422 79.1172 11.8516C78.75 11.4531 78.1914 11.2539 77.4414 11.2539C76.793 11.2539 76.2617 11.418 75.8477 11.7461C75.4336 12.0664 75.2266 12.4766 75.2266 12.9766H72.3789C72.3789 12.2812 72.6094 11.6328 73.0703 11.0312C73.5312 10.4219 74.1562 9.94531 74.9453 9.60156C75.7422 9.25781 76.6289 9.08594 77.6055 9.08594C79.0898 9.08594 80.2734 9.46094 81.1562 10.2109C82.0391 10.9531 82.4922 12 82.5156 13.3516V19.0703C82.5156 20.2109 82.6758 21.1211 82.9961 21.8008V22H80.0898ZM76.9609 19.9492C77.5234 19.9492 78.0508 19.8125 78.543 19.5391C79.043 19.2656 79.418 18.8984 79.668 18.4375V16.0469H78.1328C77.0781 16.0469 76.2852 16.2305 75.7539 16.5977C75.2227 16.9648 74.957 17.4844 74.957 18.1562C74.957 18.7031 75.1367 19.1406 75.4961 19.4688C75.8633 19.7891 76.3516 19.9492 76.9609 19.9492Z" fill="#F7F2FC"/>
<path d="M91.75 22V4.9375H97.5977C99.5273 4.9375 100.996 5.32422 102.004 6.09766C103.012 6.87109 103.516 8.02344 103.516 9.55469C103.516 10.3359 103.305 11.0391 102.883 11.6641C102.461 12.2891 101.844 12.7734 101.031 13.1172C101.953 13.3672 102.664 13.8398 103.164 14.5352C103.672 15.2227 103.926 16.0508 103.926 17.0195C103.926 18.6211 103.41 19.8516 102.379 20.7109C101.355 21.5703 99.8867 22 97.9727 22H91.75ZM94.7148 14.3008V19.6328H98.0078C98.9375 19.6328 99.6641 19.4023 100.188 18.9414C100.711 18.4805 100.973 17.8398 100.973 17.0195C100.973 15.2461 100.066 14.3398 98.2539 14.3008H94.7148ZM94.7148 12.1211H97.6211C98.543 12.1211 99.2617 11.9141 99.7773 11.5C100.301 11.0781 100.562 10.4844 100.562 9.71875C100.562 8.875 100.32 8.26562 99.8359 7.89062C99.3594 7.51562 98.6133 7.32812 97.5977 7.32812H94.7148V12.1211ZM112.199 22.2344C110.395 22.2344 108.93 21.668 107.805 20.5352C106.688 19.3945 106.129 17.8789 106.129 15.9883V15.6367C106.129 14.3711 106.371 13.2422 106.855 12.25C107.348 11.25 108.035 10.4727 108.918 9.91797C109.801 9.36328 110.785 9.08594 111.871 9.08594C113.598 9.08594 114.93 9.63672 115.867 10.7383C116.812 11.8398 117.285 13.3984 117.285 15.4141V16.5625H109C109.086 17.6094 109.434 18.4375 110.043 19.0469C110.66 19.6562 111.434 19.9609 112.363 19.9609C113.668 19.9609 114.73 19.4336 115.551 18.3789L117.086 19.8438C116.578 20.6016 115.898 21.1914 115.047 21.6133C114.203 22.0273 113.254 22.2344 112.199 22.2344ZM111.859 11.3711C111.078 11.3711 110.445 11.6445 109.961 12.1914C109.484 12.7383 109.18 13.5 109.047 14.4766H114.473V14.2656C114.41 13.3125 114.156 12.5938 113.711 12.1094C113.266 11.6172 112.648 11.3711 111.859 11.3711ZM127.082 22C126.957 21.7578 126.848 21.3633 126.754 20.8164C125.848 21.7617 124.738 22.2344 123.426 22.2344C122.152 22.2344 121.113 21.8711 120.309 21.1445C119.504 20.418 119.102 19.5195 119.102 18.4492C119.102 17.0977 119.602 16.0625 120.602 15.3438C121.609 14.6172 123.047 14.2539 124.914 14.2539H126.66V13.4219C126.66 12.7656 126.477 12.2422 126.109 11.8516C125.742 11.4531 125.184 11.2539 124.434 11.2539C123.785 11.2539 123.254 11.418 122.84 11.7461C122.426 12.0664 122.219 12.4766 122.219 12.9766H119.371C119.371 12.2812 119.602 11.6328 120.062 11.0312C120.523 10.4219 121.148 9.94531 121.938 9.60156C122.734 9.25781 123.621 9.08594 124.598 9.08594C126.082 9.08594 127.266 9.46094 128.148 10.2109C129.031 10.9531 129.484 12 129.508 13.3516V19.0703C129.508 20.2109 129.668 21.1211 129.988 21.8008V22H127.082ZM123.953 19.9492C124.516 19.9492 125.043 19.8125 125.535 19.5391C126.035 19.2656 126.41 18.8984 126.66 18.4375V16.0469H125.125C124.07 16.0469 123.277 16.2305 122.746 16.5977C122.215 16.9648 121.949 17.4844 121.949 18.1562C121.949 18.7031 122.129 19.1406 122.488 19.4688C122.855 19.7891 123.344 19.9492 123.953 19.9492ZM136.059 6.23828V9.32031H138.297V11.4297H136.059V18.5078C136.059 18.9922 136.152 19.3438 136.34 19.5625C136.535 19.7734 136.879 19.8789 137.371 19.8789C137.699 19.8789 138.031 19.8398 138.367 19.7617V21.9648C137.719 22.1445 137.094 22.2344 136.492 22.2344C134.305 22.2344 133.211 21.0273 133.211 18.6133V11.4297H131.125V9.32031H133.211V6.23828H136.059ZM147.121 11.9219C146.746 11.8594 146.359 11.8281 145.961 11.8281C144.656 11.8281 143.777 12.3281 143.324 13.3281V22H140.477V9.32031H143.195L143.266 10.7383C143.953 9.63672 144.906 9.08594 146.125 9.08594C146.531 9.08594 146.867 9.14062 147.133 9.25L147.121 11.9219ZM151.949 22H149.102V9.32031H151.949V22ZM148.926 6.02734C148.926 5.58984 149.062 5.22656 149.336 4.9375C149.617 4.64844 150.016 4.50391 150.531 4.50391C151.047 4.50391 151.445 4.64844 151.727 4.9375C152.008 5.22656 152.148 5.58984 152.148 6.02734C152.148 6.45703 152.008 6.81641 151.727 7.10547C151.445 7.38672 151.047 7.52734 150.531 7.52734C150.016 7.52734 149.617 7.38672 149.336 7.10547C149.062 6.81641 148.926 6.45703 148.926 6.02734ZM158.102 19.7266H164.852V22H154.562V20.1367L160.996 11.6172H154.68V9.32031H164.605V11.125L158.102 19.7266Z" fill="#BDBDBD"/>
<path d="M23.7148 1.05078H2.28516C1.02512 1.05078 0 2.0759 0 3.33594V24.6641C0 25.9241 1.02512 26.9492 2.28516 26.9492H23.7148C24.9749 26.9492 26 25.9241 26 24.6641V3.33594C26 2.0759 24.9749 1.05078 23.7148 1.05078ZM2.28516 2.57422H23.7148C24.1349 2.57422 24.4766 2.91593 24.4766 3.33594V7.14453H1.52344V3.33594C1.52344 2.91593 1.86514 2.57422 2.28516 2.57422ZM23.7148 25.4258H2.28516C1.86514 25.4258 1.52344 25.0841 1.52344 24.6641V8.66797H24.4766V24.6641C24.4766 25.0841 24.1349 25.4258 23.7148 25.4258Z" fill="#7B31D4"/>
<path d="M15.5852 11.0147C15.1985 10.849 14.7507 11.0281 14.585 11.4148L10.0147 22.0788C9.84893 22.4655 10.0281 22.9133 10.4147 23.079C10.8015 23.2448 11.2493 23.0655 11.4149 22.679L15.9852 12.0149C16.151 11.6282 15.9718 11.1804 15.5852 11.0147Z" fill="#7B31D4"/>
<path d="M9.02447 13.5241C8.76163 13.1956 8.28221 13.1424 7.95385 13.4052L4.14526 16.4521C3.76445 16.7566 3.7642 17.3369 4.14526 17.6417L7.95385 20.6885C8.28236 20.9514 8.76178 20.8981 9.02447 20.5696C9.28727 20.2411 9.23405 19.7617 8.90549 19.499L5.84044 17.0469L8.90549 14.5948C9.23405 14.332 9.28727 13.8527 9.02447 13.5241Z" fill="#7B31D4"/>
<path d="M21.8548 16.4521L18.0462 13.4052C17.7177 13.1424 17.2383 13.1956 16.9755 13.5241C16.7128 13.8526 16.766 14.332 17.0945 14.5947L20.1596 17.0469L17.0945 19.4989C16.766 19.7617 16.7128 20.2411 16.9755 20.5696C17.2387 20.8984 17.7181 20.951 18.0462 20.6885L21.8548 17.6416C22.2356 17.3371 22.2358 16.7569 21.8548 16.4521Z" fill="#7B31D4"/>
<path d="M3.85938 5.62109C4.28006 5.62109 4.62109 5.28006 4.62109 4.85938C4.62109 4.43869 4.28006 4.09766 3.85938 4.09766C3.43869 4.09766 3.09766 4.43869 3.09766 4.85938C3.09766 5.28006 3.43869 5.62109 3.85938 5.62109Z" fill="#7B31D4"/>
<path d="M6.90625 5.62109C7.32694 5.62109 7.66797 5.28006 7.66797 4.85938C7.66797 4.43869 7.32694 4.09766 6.90625 4.09766C6.48556 4.09766 6.14453 4.43869 6.14453 4.85938C6.14453 5.28006 6.48556 5.62109 6.90625 5.62109Z" fill="#7B31D4"/>
<path d="M9.95312 5.62109C10.3738 5.62109 10.7148 5.28006 10.7148 4.85938C10.7148 4.43869 10.3738 4.09766 9.95312 4.09766C9.53244 4.09766 9.19141 4.43869 9.19141 4.85938C9.19141 5.28006 9.53244 5.62109 9.95312 5.62109Z" fill="#7B31D4"/>
<path d="M17.5703 5.62109H22.1406C22.5613 5.62109 22.9023 5.28005 22.9023 4.85938C22.9023 4.4387 22.5613 4.09766 22.1406 4.09766H17.5703C17.1496 4.09766 16.8086 4.4387 16.8086 4.85938C16.8086 5.28005 17.1496 5.62109 17.5703 5.62109Z" fill="#7B31D4"/>
</svg>
