<svg width="26" height="26" viewBox="0 0 26 26" fill="none" xmlns="http://www.w3.org/2000/svg">
<path d="M23.7148 0.0507812H2.28516C1.02512 0.0507812 0 1.0759 0 2.33594V23.6641C0 24.9241 1.02512 25.9492 2.28516 25.9492H23.7148C24.9749 25.9492 26 24.9241 26 23.6641V2.33594C26 1.0759 24.9749 0.0507812 23.7148 0.0507812ZM2.28516 1.57422H23.7148C24.1349 1.57422 24.4766 1.91593 24.4766 2.33594V6.14453H1.52344V2.33594C1.52344 1.91593 1.86514 1.57422 2.28516 1.57422ZM23.7148 24.4258H2.28516C1.86514 24.4258 1.52344 24.0841 1.52344 23.6641V7.66797H24.4766V23.6641C24.4766 24.0841 24.1349 24.4258 23.7148 24.4258Z" fill="#7B31D4"/>
<path d="M15.5852 10.0147C15.1985 9.84902 14.7507 10.0281 14.585 10.4148L10.0147 21.0788C9.84893 21.4655 10.0281 21.9133 10.4147 22.079C10.8015 22.2448 11.2493 22.0655 11.4149 21.679L15.9852 11.0149C16.151 10.6282 15.9718 10.1804 15.5852 10.0147Z" fill="#7B31D4"/>
<path d="M9.02447 12.5241C8.76163 12.1956 8.28221 12.1424 7.95385 12.4052L4.14526 15.4521C3.76445 15.7566 3.7642 16.3369 4.14526 16.6417L7.95385 19.6885C8.28236 19.9514 8.76178 19.8981 9.02447 19.5696C9.28727 19.2411 9.23405 18.7617 8.90549 18.499L5.84044 16.0469L8.90549 13.5948C9.23405 13.332 9.28727 12.8527 9.02447 12.5241Z" fill="#7B31D4"/>
<path d="M21.8548 15.4521L18.0462 12.4052C17.7177 12.1424 17.2383 12.1956 16.9755 12.5241C16.7128 12.8526 16.766 13.332 17.0945 13.5947L20.1596 16.0469L17.0945 18.4989C16.766 18.7617 16.7128 19.2411 16.9755 19.5696C17.2387 19.8984 17.7181 19.951 18.0462 19.6885L21.8548 16.6416C22.2356 16.3371 22.2358 15.7569 21.8548 15.4521Z" fill="#7B31D4"/>
<path d="M3.85938 4.62109C4.28006 4.62109 4.62109 4.28006 4.62109 3.85938C4.62109 3.43869 4.28006 3.09766 3.85938 3.09766C3.43869 3.09766 3.09766 3.43869 3.09766 3.85938C3.09766 4.28006 3.43869 4.62109 3.85938 4.62109Z" fill="#7B31D4"/>
<path d="M6.90625 4.62109C7.32694 4.62109 7.66797 4.28006 7.66797 3.85938C7.66797 3.43869 7.32694 3.09766 6.90625 3.09766C6.48556 3.09766 6.14453 3.43869 6.14453 3.85938C6.14453 4.28006 6.48556 4.62109 6.90625 4.62109Z" fill="#7B31D4"/>
<path d="M9.95312 4.62109C10.3738 4.62109 10.7148 4.28006 10.7148 3.85938C10.7148 3.43869 10.3738 3.09766 9.95312 3.09766C9.53244 3.09766 9.19141 3.43869 9.19141 3.85938C9.19141 4.28006 9.53244 4.62109 9.95312 4.62109Z" fill="#7B31D4"/>
<path d="M17.5703 4.62109H22.1406C22.5613 4.62109 22.9023 4.28005 22.9023 3.85938C22.9023 3.4387 22.5613 3.09766 22.1406 3.09766H17.5703C17.1496 3.09766 16.8086 3.4387 16.8086 3.85938C16.8086 4.28005 17.1496 4.62109 17.5703 4.62109Z" fill="#7B31D4"/>
</svg>
